<svg id="Layer_1" data-name="Layer 1" xmlns="http://www.w3.org/2000/svg" xmlns:xlink="http://www.w3.org/1999/xlink" width="99" height="75.91" viewBox="0 0 99 75.91"><defs><symbol id="New_Symbol_92" data-name="New Symbol 92" viewBox="0 0 99 75.91"><g id="New_Symbol_75" data-name="New Symbol 75"><path d="M15.52,9.91l-5.29,4.7a4,4,0,0,0,.3,6.22l5.36,3.9a9.31,9.31,0,0,1,2.47,3l5.86,12.37a5,5,0,0,0,6.95,2.23L49.81,30.93a8.44,8.44,0,0,1,3.71-1.06h16A3.18,3.18,0,0,0,72.26,28l2.51-6.28c0.41-1,1.19-1.85,1.74-1.85s1.12,0.89,1.26,2l1.47,11a2.09,2.09,0,0,1-1.71,2.31l-4,.67" fill="none" stroke="#babec5" stroke-linecap="round" stroke-linejoin="round" stroke-width="2"/><path d="M70,32.87v4a2,2,0,0,1-2,2l-13.48,0a10.14,10.14,0,0,0-3.79.9l-2.21,1.11" fill="none" stroke="#babec5" stroke-linecap="round" stroke-linejoin="round" stroke-width="2"/><path d="M27.52,16.91l8.21-4.11c1-.49,1-1.23-0.07-1.64L32.52,9.91" fill="none" stroke="#babec5" stroke-linecap="round" stroke-linejoin="round" stroke-width="2"/><path d="M22,18.87L17.49,7.59a3.86,3.86,0,0,1,2.27-5.08l3.48-1.27a4,4,0,0,1,5.13,2.39l1.27,3.48a3.86,3.86,0,0,1-1.88,5L24.5,13.37" fill="none" stroke="#babec5" stroke-linecap="round" stroke-linejoin="round" stroke-width="2"/><path d="M17,14.91l-1,1a1.78,1.78,0,0,0,.42,2.41l1.16,1.15a2.44,2.44,0,0,0,2.92.41l1.5-1" fill="none" stroke="#babec5" stroke-linecap="round" stroke-linejoin="round" stroke-width="2"/><path d="M32,3.91L42.43,8.82a4,4,0,0,1,.44,7l-3.18,2a2.56,2.56,0,0,0-1,2.94L43,31.91" fill="none" stroke="#babec5" stroke-linecap="round" stroke-linejoin="round" stroke-width="2"/><path d="M12,6.87H3A1.34,1.34,0,0,0,1.65,8.76L11.35,37a17.37,17.37,0,0,1,.76,3.89l0.78,14A1.73,1.73,0,0,0,15,56.52L50,50.23a2,2,0,0,0,1.64-2.33l-0.34-2.05A1.94,1.94,0,0,0,49,44.25L20,49.87" fill="none" stroke="#babec5" stroke-linecap="round" stroke-linejoin="round" stroke-width="2"/><path d="M32,53.87v9a3.55,3.55,0,0,1-1.79,2.89L22,69.89" fill="none" stroke="#babec5" stroke-linecap="round" stroke-linejoin="round" stroke-width="2"/><line x1="32" y1="64.87" x2="43" y2="69.87" fill="none" stroke="#babec5" stroke-linecap="round" stroke-linejoin="round" stroke-width="2"/><path d="M94,23.87l3.59,17.06A1.55,1.55,0,0,1,96,42.87H62a2,2,0,0,0-2,2v1a2,2,0,0,0,2,2l6,0a2,2,0,0,1,2,2v23a2,2,0,0,0,2,2l19,0" fill="none" stroke="#babec5" stroke-linecap="round" stroke-linejoin="round" stroke-width="2"/><circle cx="43.5" cy="74.37" r="1.5" fill="#b9bdc4"/><circle cx="32.5" cy="74.37" r="1.5" fill="#b9bdc4"/><circle cx="21.5" cy="74.37" r="1.5" fill="#b9bdc4"/><path d="M85.57,34.46A2.11,2.11,0,0,0,88,33L96,3.84a1.91,1.91,0,0,0-1.42-2.38l-0.62-.14A2.11,2.11,0,0,0,91.47,2.8L83.53,31.94a1.91,1.91,0,0,0,1.42,2.38Z" fill="#53b700"/></g></symbol></defs><title>taking_a_break</title><use id="New_Symbol_92-3" data-name="New Symbol 92" width="99" height="75.91" transform="translate(0 0)" xlink:href="#New_Symbol_92"/></svg>