<svg xmlns="http://www.w3.org/2000/svg" viewBox="0 0 792 612"><g fill="#FFF"><path d="M663.953 332.31c0-1.073-.916-1.464-1.853-1.464h-1.755v4.993h.898v-2.088h.643l1.17 2.087h1.092l-1.346-2.186c.702-.156 1.15-.624 1.15-1.345zm-2.71.72v-1.423h.818c.47 0 .996.136.996.682 0 .604-.585.74-1.092.74h-.72zm.837-4.095c-2.457 0-4.445 1.97-4.445 4.427s1.988 4.388 4.445 4.388 4.447-1.93 4.447-4.388-1.99-4.427-4.447-4.427zm0 8.17c-2.066 0-3.744-1.696-3.744-3.743 0-2.067 1.678-3.744 3.744-3.744 2.068 0 3.745 1.677 3.745 3.744 0 2.047-1.677 3.744-3.745 3.744zM376.043 329.683c-6.503 0-9.782-5.81-9.782-11.43 0-5.618 3.558-11.182 9.47-11.182 2.77 0 6.27 1.39 7.645 3.343l6.885-6.86c-3.332-3.512-8.645-5.608-14.53-5.608-11.973 0-20.664 8.593-20.664 20.432 0 12.03 8.594 20.433 20.9 20.433 5.854 0 11.265-1.714 14.473-5.163l-6.697-7.187c-1.547 1.884-4.79 3.223-7.7 3.223zm-38.506 8.037h10.683v-38.686h-10.683v38.686zm-19.425-17.476c0 4.546-2.963 9.44-8.486 9.44-4.258 0-6.53-3.037-6.53-9.284v-21.366H292.41v24.01c0 7.99 3.987 15.766 14.647 15.766 5.027 0 9.238-3.958 11.36-6.88h.16v5.79h10.215v-38.686h-10.683v21.21zm-44.972-16.298h-.237c-1.51-1.67-5.597-6-12.236-6-10.892 0-19.285 8.526-19.285 20.276 0 11.93 7.745 20.588 18.773 20.588 5.007 0 9.71-2.654 12.437-5.74h.158v23.7h10.683v-57.736H273.14v4.912zm-10.372 25.737c-6.606 0-10.36-5.766-10.36-11.46 0-5.447 3.447-11.308 10.36-11.308 6.358 0 10.293 5.95 10.293 11.462 0 5.557-3.85 11.306-10.292 11.306zm243.33-31.738c-12.156 0-20.978 8.527-20.978 20.277 0 12.158 9.018 20.692 20.977 20.692 11.958 0 20.977-8.616 20.977-20.692 0-11.75-8.822-20.277-20.977-20.277zm0 31.738c-6.967 0-10.14-5.94-10.14-11.46 0-5.447 3.173-11.308 10.14-11.308 6.966 0 10.138 5.86 10.138 11.307 0 5.52-3.172 11.46-10.14 11.46zm133.555-15.774c-5.498-1.313-7.435-2.02-7.435-4.245 0-3.07 3.89-3.744 5.65-3.744 3.315 0 7.06 1.98 8.468 3.86l6.3-6.044c-2.914-3.66-8.642-5.79-14.69-5.79-7.732 0-15.85 3.887-15.85 12.574 0 7.46 5.847 9.71 11.568 11.08 6.03 1.405 8.18 2.43 8.18 4.86 0 3.58-4.063 4.165-5.46 4.165-3.495 0-7.545-2-9.73-4.594l-6.485 6.575c3.542 3.93 9.606 6.293 15.825 6.293 10.443 0 16.64-4.978 16.64-13.193 0-7.86-7.585-10.503-12.982-11.796zm-20.196-14.876H605.68l-13.792 16.053h-.238v-37.372h-10.682v60.005h10.682v-19.08h.238l14.31 19.08h14.057l-16.63-21.142 15.832-17.544zm-158.41-1.09c-4.886 0-8.485 2.136-11.884 5.32h-.2v-25.55h-10.68v60.006h10.214v-5.468h.16c2.408 3.95 7.194 6.558 12.157 6.558 11.027 0 19.387-8.66 19.387-20.588 0-11.75-8.26-20.277-19.153-20.277zm-2.1 31.74c-6.444 0-10.295-5.75-10.295-11.307 0-5.512 3.936-11.462 10.295-11.462 6.912 0 10.35 5.86 10.35 11.307 0 5.695-3.745 11.46-10.35 11.46zm-24.684-30.65h-13.778l-13.792 16.053h-.238v-37.372h-10.682v60.005h10.682v-19.08h.238l14.31 19.08h14.057l-16.63-21.142 15.833-17.544zm118.776-1.09c-12.156 0-20.978 8.528-20.978 20.278 0 12.158 9.018 20.692 20.977 20.692 11.957 0 20.976-8.616 20.976-20.692 0-11.75-8.822-20.277-20.977-20.277zm0 31.74c-6.967 0-10.14-5.942-10.14-11.462 0-5.446 3.173-11.307 10.14-11.307 6.965 0 10.138 5.86 10.138 11.307 0 5.52-3.173 11.46-10.14 11.46zM184.37 255.226c-24.852 0-45 20.146-45 45 0 24.852 20.148 45 45 45 24.854 0 45-20.148 45-45 0-24.854-20.146-45-45-45zm-2.497 74.498c-3.59 0-6.5-2.91-6.5-6.5v-34h-6.007c-6.066 0-11 4.935-11 11 0 6.066 4.934 11 11 11h2.5v6.5h-2.5c-9.665 0-17.5-7.835-17.5-17.5s7.835-17.5 17.5-17.5h12.507v47zm17.502-11.997h-12.508v-47c3.59 0 6.5 2.91 6.5 6.5v34h6.008c6.065 0 11-4.935 11-11s-4.935-11-11-11h-2.5v-6.5h2.5c9.665 0 17.5 7.835 17.5 17.5s-7.835 17.5-17.5 17.5zM285.44 265.473c1.642 0 2.973-1.332 2.973-2.973 0-1.642-1.33-2.974-2.973-2.974-1.642 0-2.974 1.332-2.974 2.974 0 1.64 1.332 2.973 2.974 2.973zm-17.744 2.003c-2.91 0-5.248 1.764-6.108 3.732h-.083v-3.157h-4.673v19.684h4.92v-10.826c0-2.624 1.476-5.33 4.59-5.33 3.16 0 3.693 2.91 3.693 5.248v10.908h4.92v-12.302c0-4.02-2.132-7.956-7.26-7.956zm-20.828 20.258h4.92V268.05h-4.92v19.684zm89.483-22.26c1.643 0 2.974-1.333 2.974-2.974 0-1.642-1.33-2.974-2.973-2.974-1.64 0-2.972 1.332-2.972 2.974 0 1.64 1.33 2.973 2.973 2.973zm-7.977 2.565v4.36h5.518v15.334h4.922V272.4h5.517v-4.36h-15.957zm-8.368 19.694h4.92V268.05h-4.92v19.684zM277.462 272.4h5.517v15.334h4.92V272.4h5.517v-4.36h-15.955v4.36zm32.585 6.477c0 2.624-1.477 5.33-4.592 5.33-3.158 0-3.69-2.91-3.69-5.25v-10.906h-4.922v12.302c0 4.02 2.132 7.956 7.26 7.956 2.91 0 5.248-1.763 6.108-3.732h.083v3.158h4.675V268.05h-4.92v10.827z"/></g><path fill="none" d="M94.37 210.226h603.26v191.55H94.37z"/></svg>